<svg xmlns="http://www.w3.org/2000/svg" width="24" height="24" fill="none" viewBox="0 0 24 24"><circle cx="12" cy="12" r="12" fill="#FF474C"></circle><path fill="#fff" fill-rule="evenodd" d="M14.964 9.137c.003-1.762-1.656-3.033-3.329-2.572L6.721 7.919l2.05 3.387 5.182-1.428c.316-.087.631-.129.94-.13.046-.197.07-.402.07-.611Zm.861.735c.05-.238.076-.483.076-.734.004-2.37-2.234-4.105-4.515-3.477L5.277 7.344l3.059 5.054 5.866-1.616a2.58 2.58 0 0 1 .236-.054 2.63 2.63 0 0 1-1.41.971l-6.463 1.795 3.058 5.053 6.222-1.727a3.595 3.595 0 0 0 2.623-3.47c0-1.7-1.15-3.07-2.643-3.478Zm-.31.889a3.576 3.576 0 0 1-2.237 1.842l-5.271 1.463 2.05 3.388 5.537-1.538a2.658 2.658 0 0 0 1.936-2.566 2.656 2.656 0 0 0-2.015-2.589Z" clip-rule="evenodd"></path></svg>