<svg xmlns="http://www.w3.org/2000/svg" width="24" height="24" fill="none" viewBox="0 0 24 24">
  <path fill="#E2761B" d="M21.006 2 13.2 8.253l1.444-3.69L21.006 2Z"/>
  <path fill="#E4761B" d="m2.985 2 7.744 6.312-1.373-3.748L2.986 2Zm15.213 14.494-2.08 3.435 4.449 1.32 1.279-4.68-3.648-.075Zm-16.036.076 1.27 4.679 4.449-1.32-2.079-3.435-3.64.076Z"/>
  <path fill="#E4761B" d="m7.63 10.69-1.24 2.022 4.417.211-.157-5.119-3.02 2.885Zm8.732-.001-3.06-2.944-.102 5.178 4.41-.212-1.248-2.022ZM7.88 19.928l2.653-1.396-2.291-1.93-.361 3.326Zm5.578-1.396 2.66 1.396-.37-3.326-2.29 1.93Z"/>
  <path fill="#D7C1B3" d="m16.118 19.927-2.66-1.396.212 1.87-.024.787 2.472-1.26Zm-8.238 0 2.472 1.261-.016-.787.197-1.87-2.652 1.396Z"/>
  <path fill="#233447" d="m10.392 15.367-2.213-.702 1.561-.77.652 1.472Zm3.208 0 .651-1.473 1.57.77-2.22.703Z"/>
  <path fill="#CD6116" d="m7.882 19.929.376-3.435-2.455.076 2.079 3.359Zm7.86-3.435.376 3.435 2.08-3.36-2.456-.075Zm1.868-3.783-4.41.212.408 2.445.652-1.472 1.569.77 1.78-1.955Zm-9.431 1.955 1.569-.77.643 1.472.416-2.445-4.417-.212 1.789 1.955Z"/>
  <path fill="#E4751F" d="m6.39 12.711 1.852 3.892-.063-1.937L6.39 12.71Zm9.439 1.955-.079 1.937 1.86-3.892-1.781 1.955Zm-5.022-1.744-.415 2.446.518 2.885.117-3.8-.22-1.53Zm2.393 0-.212 1.523.094 3.808.526-2.885-.408-2.446Z"/>
  <path fill="#F6851B" d="m13.609 15.368-.526 2.885.377.28 2.29-1.93.079-1.938-2.22.703Zm-5.429-.703.062 1.938 2.29 1.93.377-.28-.518-2.885-2.212-.703Z"/>
  <path fill="#C0AD9E" d="m13.647 21.19.023-.788-.196-.186h-2.957l-.18.186.015.787-2.471-1.26.863.76 1.749 1.312h3.005l1.757-1.311.863-.761-2.471 1.26Z"/>
  <path fill="#161616" d="m13.458 18.531-.377-.279H10.91l-.377.28-.196 1.87.18-.187h2.958l.196.186-.212-1.87Z"/>
  <path fill="#763D16" d="M21.335 8.659 22 5.207 21.006 2l-7.547 6.041 2.903 2.648 4.103 1.295.91-1.142-.392-.305.627-.617-.486-.406.627-.517-.415-.338ZM1.997 5.207l.667 3.452-.424.338.628.517-.479.406.628.617-.392.305.902 1.142 4.103-1.295 2.903-2.648L2.985 2l-.988 3.207Z"/>
  <path fill="#F6851B" d="m20.465 11.982-4.103-1.294 1.248 2.022-1.86 3.892 2.448-.033h3.648l-1.381-4.586ZM7.63 10.688l-4.103 1.294-1.365 4.587h3.64l2.44.033L6.39 12.71l1.24-2.022Zm5.57 2.235.259-4.882 1.192-3.478H9.355l1.178 3.478.274 4.882.094 1.54.008 3.79h2.173l.016-3.79.101-1.54Z"/>
</svg>
